<?xml version="1.0" standalone="no"?>
<!DOCTYPE svg PUBLIC "-//W3C//DTD SVG 20010904//EN"
 "http://www.w3.org/TR/2001/REC-SVG-20010904/DTD/svg10.dtd">
<svg version="1.0" xmlns="http://www.w3.org/2000/svg"
 width="300.000000pt" height="300.000000pt" viewBox="0 0 300.000000 300.000000"
 preserveAspectRatio="xMidYMid meet">
<metadata>
Created by potrace 1.10, written by Peter Selinger 2001-2011
</metadata>
<g transform="translate(0.000000,300.000000) scale(0.100000,-0.100000)"
fill="#FFFFFF" stroke="none">
<path d="M1442 2725 c-16 -14 -33 -36 -36 -50 -9 -35 18 -93 49 -105 l25 -10
0 -240 0 -240 -130 0 -130 0 0 110 c0 70 4 110 10 110 21 0 60 53 60 81 0 60
-38 102 -95 102 -53 0 -95 -42 -95 -94 0 -31 27 -77 50 -84 18 -6 20 -15 20
-116 l0 -109 -58 0 c-120 0 -192 -72 -192 -192 l0 -58 -109 0 c-101 0 -110 2
-116 20 -7 23 -53 50 -84 50 -63 0 -108 -60 -90 -122 18 -68 101 -91 153 -43
14 13 26 29 26 35 0 6 40 10 110 10 l110 0 0 -130 0 -130 -238 0 -239 0 -11
26 c-14 30 -73 57 -107 48 -34 -9 -75 -60 -75 -94 0 -34 41 -85 75 -94 35 -9
93 18 105 49 l10 25 240 0 240 0 0 -130 0 -130 -110 0 c-70 0 -110 4 -110 10
0 6 -12 22 -26 35 -52 48 -135 25 -153 -43 -18 -62 27 -122 90 -122 31 0 77
27 84 50 6 18 15 20 116 20 l109 0 0 -58 c0 -120 72 -192 192 -192 l58 0 0
-108 c0 -104 -1 -109 -24 -121 -58 -32 -60 -131 -2 -160 71 -35 146 5 146 79
0 37 -35 90 -60 90 -6 0 -10 40 -10 110 l0 110 130 0 130 0 0 -240 0 -240 -25
-10 c-31 -12 -58 -70 -49 -105 9 -34 60 -75 94 -75 34 0 85 41 94 75 9 35 -18
93 -49 105 l-25 10 0 240 0 240 130 0 130 0 0 -110 c0 -70 -4 -110 -10 -110
-6 0 -22 -12 -35 -26 -35 -37 -34 -92 1 -128 61 -60 164 -19 164 65 0 31 -27
77 -50 84 -18 6 -20 15 -20 116 l0 109 58 0 c120 0 192 72 192 192 l0 58 108
0 c104 0 109 -1 121 -24 32 -58 131 -60 160 -2 36 72 -4 146 -79 146 -37 0
-90 -35 -90 -60 0 -6 -40 -10 -110 -10 l-110 0 0 130 0 130 240 0 240 0 10
-25 c12 -31 70 -58 105 -49 34 9 75 60 75 94 0 34 -41 85 -75 94 -34 9 -93
-18 -107 -48 l-11 -26 -239 0 -238 0 0 130 0 130 110 0 c70 0 110 -4 110 -10
0 -25 53 -60 90 -60 55 0 90 36 90 92 -1 46 -12 68 -47 86 -43 24 -101 7 -124
-34 -12 -23 -17 -24 -121 -24 l-108 0 0 58 c0 120 -72 192 -192 192 l-58 0 0
109 c0 101 2 110 20 116 23 7 50 53 50 84 0 84 -103 125 -164 65 -35 -36 -36
-91 -1 -128 13 -14 29 -26 35 -26 6 0 10 -40 10 -110 l0 -110 -130 0 -130 0 0
240 0 240 25 10 c31 12 58 70 49 105 -9 34 -60 75 -94 75 -16 0 -42 -11 -58
-25z m90 -42 c25 -23 23 -50 -7 -69 -23 -15 -27 -15 -50 0 -29 19 -32 42 -8
68 20 22 41 23 65 1z m-308 -259 c40 -40 -3 -101 -53 -75 -37 20 -18 91 24 91
7 0 21 -7 29 -16z m607 6 c29 -16 26 -67 -5 -81 -50 -23 -90 36 -50 75 18 19
28 20 55 6z m139 -415 c60 -31 60 -31 60 -517 0 -425 -1 -444 -20 -476 -11
-18 -32 -37 -46 -42 -15 -6 -204 -10 -465 -10 -374 0 -444 2 -469 15 -60 31
-60 31 -60 517 0 426 1 444 20 476 11 18 30 37 43 42 12 5 221 9 465 9 377 1
447 -1 472 -14z m-1319 -186 c26 -50 -35 -93 -75 -53 -20 20 -20 33 1 56 22
25 60 23 74 -3z m1779 1 c24 -45 -22 -85 -69 -60 -23 12 -26 31 -11 61 15 26
66 26 80 -1z m-2052 -292 c7 -7 12 -24 12 -38 0 -47 -37 -65 -72 -33 -22 20
-23 41 -1 65 19 21 44 23 61 6z m2304 -5 c22 -20 23 -41 1 -65 -31 -34 -73
-16 -73 32 0 47 37 65 72 33z m-2032 -309 c19 -22 1 -68 -29 -72 -24 -4 -61
23 -61 44 0 38 66 58 90 28z m1774 0 c20 -20 20 -33 -1 -56 -23 -26 -61 -23
-74 6 -23 50 36 90 75 50z m-1191 -585 c5 -9 7 -28 3 -42 -13 -53 -86 -42 -86
13 0 46 59 67 83 29z m598 11 c39 -21 16 -90 -30 -90 -36 0 -55 71 -23 89 22
13 29 13 53 1z m-293 -273 c17 -13 15 -37 -5 -59 -20 -22 -41 -23 -65 -1 -50
45 15 102 70 60z"/>
<path d="M1380 1766 c0 -2 -40 -122 -90 -267 -49 -144 -90 -264 -90 -266 0 -1
15 -3 34 -3 35 0 35 0 63 85 l27 86 100 -3 100 -3 26 -82 25 -83 38 0 c20 0
37 1 37 3 0 1 -37 108 -81 237 -45 129 -85 250 -91 268 -8 30 -12 32 -53 32
-25 0 -45 -2 -45 -4z m55 -88 c4 -18 22 -77 41 -130 l34 -98 -85 0 c-47 0 -85
2 -85 4 0 2 16 51 35 109 19 57 35 114 35 126 0 33 18 25 25 -11z"/>
<path d="M1735 1500 l0 -270 35 0 35 0 0 270 0 270 -35 0 -35 0 0 -270z"/>
</g>
</svg>
